<?xml version="1.0" standalone="no"?>
<!DOCTYPE svg PUBLIC "-//W3C//DTD SVG 1.1//EN" "http://www.w3.org/Graphics/SVG/1.1/DTD/svg11.dtd">
<svg xmlns:x="http://ns.adobe.com/Extensibility/1.0/" xmlns:i="http://ns.adobe.com/AdobeIllustrator/10.0/" xmlns:graph="http://ns.adobe.com/Graphs/1.0/" xmlns="http://www.w3.org/2000/svg" xmlns:xlink="http://www.w3.org/1999/xlink" version="1.1" id="Ebene_1" x="0px" y="0px" viewBox="0 0 131.81 99.25" style="enable-background:new 0 0 131.81 99.25;" xml:space="preserve" width="131.80999755859375" height="99.25">
<style type="text/css">
	.st0{fill:#47D6C1;}
	.st1{fill:#FFFFFF;}
</style>
<metadata>
	<sfw xmlns="http://ns.adobe.com/SaveForWeb/1.0/">
		<slices/>
		<sliceSourceBounds bottomLeftOrigin="true" height="99.25" width="131.81" x="616.54" y="-434.13"/>
	</sfw>
</metadata>
<path class="st0" d="M79.91,28.85L39.24,65.09c0,0-21.83,19.08-25.72,21.9c-0.43,0.27-0.84-0.07-0.92-0.22  c-0.42-0.9-0.42-3.82-0.42-5.78V0.47H0.01v80.52c0,6.38-0.8,18.25,12.95,18.25c2.15,0,6.22,0,34.49-25.04l0.02-0.02  c0.08-0.07,0.14-0.13,0.22-0.19l0,0L79.91,44.8V28.85z"/>
<path class="st1" d="M118.77,0.04c-2.73,0.13-5.26,0.87-26.68,18.68C92.08,8.65,83.89,0.47,73.83,0.47H53.84  c-10.07,0-18.26,8.19-18.26,18.26v49.55c1.25-1.1,3.66-3.19,3.66-3.19l8.52-7.59V18.73c0-3.36,2.73-6.09,6.09-6.09h19.99  c3.36,0,6.08,2.73,6.08,6.09v10.12h0V44.8h0v35.63c0,3.36-2.73,6.09-6.08,6.09H53.84c-3.36,0-6.09-2.73-6.09-6.09v-6.5l-0.06,0.06  l0,0c-0.08,0.06-0.14,0.13-0.22,0.19l-0.02,0.02c-4.41,3.91-8.2,7.2-11.48,9.98c1.74,8.27,9.09,14.5,17.87,14.5h19.99  c10.07,0,18.26-8.19,18.26-18.26V34.76l0.07,0.08c10.32-9.15,22.17-19.27,26.1-22.11c0.43-0.33,1.14-0.03,1.17,0.24  c0.09,0.4,0.16,4.37,0.17,5.76v79.84h12.17V18.73C131.8,8,133.04-0.63,118.77,0.04"/>
</svg>