<?xml version="1.0" standalone="no"?>
<!DOCTYPE svg PUBLIC "-//W3C//DTD SVG 1.1//EN" "http://www.w3.org/Graphics/SVG/1.1/DTD/svg11.dtd">
<svg xmlns:x="http://ns.adobe.com/Extensibility/1.0/" xmlns:i="http://ns.adobe.com/AdobeIllustrator/10.0/" xmlns:graph="http://ns.adobe.com/Graphs/1.0/" xmlns="http://www.w3.org/2000/svg" xmlns:xlink="http://www.w3.org/1999/xlink" version="1.1" id="Ebene_1" x="0px" y="0px" viewBox="0 0 140.98 52.37" style="enable-background:new 0 0 140.98 52.37;" xml:space="preserve" width="140.97999572753906" height="52.369998931884766">
<style type="text/css">
	.st0{fill:#47D6C1;}
</style>
<metadata>
	<sfw xmlns="http://ns.adobe.com/SaveForWeb/1.0/">
		<slices/>
		<sliceSourceBounds bottomLeftOrigin="true" height="52.37" width="140.98" x="569.68" y="-538.51"/>
	</sfw>
</metadata>
<path class="st0" d="M39.96,14.43L19.62,32.55c0,0-10.91,9.54-12.86,10.95c-0.22,0.14-0.42-0.03-0.46-0.11  c-0.21-0.45-0.21-1.91-0.21-2.89V0.23H0V40.5c0,3.19-0.4,9.13,6.48,9.13c1.08,0,3.11,0,17.25-12.52h0l0.01-0.01  c0.04-0.03,0.07-0.06,0.11-0.1l0,0L39.96,22.4V14.43z"/>
<path d="M59.38,0.02c-1.37,0.06-2.63,0.43-13.34,9.34c0-5.03-4.1-9.12-9.13-9.12h-9.99c-5.03,0-9.13,4.1-9.13,9.13v24.78  c0.62-0.55,1.83-1.59,1.83-1.59l4.26-3.79V9.36c0-1.68,1.36-3.04,3.04-3.04h9.99c1.68,0,3.04,1.36,3.04,3.04v5.06v7.98v17.81  c0,1.68-1.36,3.04-3.04,3.04h-9.99c-1.68,0-3.04-1.36-3.04-3.04v-3.25l-0.03,0.03l0,0c-0.04,0.03-0.07,0.06-0.11,0.1l-0.01,0.01h0  c-2.2,1.95-4.1,3.6-5.74,4.99c0.87,4.13,4.54,7.25,8.93,7.25h9.99c5.03,0,9.13-4.1,9.13-9.13V17.38l0.03,0.04  c5.16-4.57,11.08-9.63,13.05-11.06c0.22-0.16,0.57-0.02,0.59,0.12c0.04,0.2,0.08,2.18,0.08,2.88v39.92h6.09V9.36  C65.9,4,66.52-0.31,59.38,0.02"/>
<g>
	<path d="M80.91,16.71c1.36,0,2.5,0.45,3.42,1.35c0.92,0.9,1.38,2.01,1.38,3.31s-0.46,2.41-1.38,3.31c-0.92,0.9-2.06,1.35-3.42,1.35   h-3.47v-9.33H80.91z M79.45,18.51v5.73h1.46c0.77,0,1.43-0.28,1.98-0.83c0.55-0.56,0.82-1.23,0.82-2.03c0-0.8-0.27-1.48-0.8-2.03   c-0.53-0.56-1.2-0.83-2-0.83H79.45z"/>
	<path d="M88.88,18.37c-0.19,0.18-0.45,0.27-0.78,0.27c-0.3,0-0.55-0.09-0.73-0.27c-0.18-0.18-0.27-0.42-0.27-0.73   s0.09-0.54,0.27-0.73c0.18-0.18,0.42-0.27,0.72-0.27c0.33,0,0.59,0.09,0.78,0.27s0.29,0.42,0.29,0.73S89.07,18.19,88.88,18.37z    M89.04,26.04h-1.8v-6.53h1.8V26.04z"/>
	<path d="M95.3,24.98c-0.02,0.03-0.04,0.06-0.08,0.1c-0.04,0.04-0.11,0.11-0.23,0.22c-0.12,0.11-0.25,0.2-0.38,0.29   c-0.14,0.08-0.32,0.16-0.54,0.23c-0.22,0.07-0.45,0.1-0.69,0.1c-0.75,0-1.42-0.32-2.03-0.97s-0.91-1.41-0.91-2.29   c0-0.88,0.3-1.65,0.91-2.29s1.28-0.97,2.03-0.97c0.37,0,0.72,0.08,1.05,0.23c0.33,0.16,0.55,0.31,0.68,0.46l0.2,0.24v-0.8h1.8v6   c0,0.94-0.33,1.73-0.99,2.37c-0.66,0.64-1.48,0.96-2.48,0.96c-0.37,0-0.73-0.05-1.07-0.15c-0.34-0.1-0.63-0.21-0.85-0.34   s-0.42-0.27-0.59-0.41c-0.17-0.14-0.29-0.26-0.36-0.35l-0.12-0.15l1.13-1.07c0.04,0.06,0.11,0.14,0.2,0.24   c0.09,0.1,0.29,0.23,0.6,0.39c0.31,0.16,0.65,0.24,1,0.24c0.53,0,0.96-0.16,1.27-0.47c0.31-0.31,0.47-0.73,0.47-1.27V24.98z    M92.72,23.79c0.28,0.3,0.63,0.46,1.04,0.46c0.41,0,0.77-0.16,1.07-0.47c0.31-0.31,0.46-0.69,0.46-1.14c0-0.44-0.15-0.82-0.46-1.13   c-0.31-0.31-0.66-0.47-1.07-0.47c-0.41,0-0.76,0.15-1.04,0.45s-0.43,0.68-0.43,1.15C92.3,23.11,92.44,23.49,92.72,23.79z"/>
	<path d="M100.54,18.37c-0.19,0.18-0.45,0.27-0.78,0.27c-0.3,0-0.55-0.09-0.73-0.27c-0.18-0.18-0.27-0.42-0.27-0.73   s0.09-0.54,0.27-0.73c0.18-0.18,0.42-0.27,0.72-0.27c0.33,0,0.59,0.09,0.78,0.27s0.29,0.42,0.29,0.73S100.73,18.19,100.54,18.37z    M100.69,26.04h-1.8v-6.53h1.8V26.04z"/>
	<path d="M103.29,17.58h1.6v2.06h1.33v1.6h-1.33v2.6c0,0.2,0.07,0.38,0.22,0.52c0.15,0.14,0.34,0.21,0.57,0.21   c0.12,0,0.23-0.01,0.34-0.04c0.11-0.02,0.19-0.05,0.25-0.07l0.08-0.03v1.54c-0.36,0.13-0.76,0.2-1.2,0.2   c-1.38,0-2.06-0.75-2.06-2.26v-2.66h-1.13v-1.6h0.6c0.2,0,0.38-0.08,0.52-0.24c0.14-0.16,0.21-0.37,0.21-0.62V17.58z"/>
	<path d="M111.21,25.38c-0.05,0.06-0.12,0.14-0.22,0.22c-0.09,0.09-0.3,0.21-0.61,0.35c-0.31,0.15-0.64,0.22-0.98,0.22   c-0.65,0-1.18-0.18-1.59-0.54c-0.41-0.36-0.61-0.8-0.61-1.32c0-0.53,0.17-0.98,0.51-1.33s0.82-0.59,1.42-0.7l2.07-0.37   c0-0.27-0.1-0.5-0.3-0.67c-0.2-0.17-0.48-0.26-0.83-0.26c-0.29,0-0.56,0.06-0.81,0.17s-0.41,0.22-0.51,0.34l-0.15,0.16l-1-1   c0.03-0.03,0.06-0.08,0.11-0.14c0.05-0.06,0.15-0.16,0.31-0.3c0.16-0.14,0.33-0.27,0.52-0.38c0.19-0.11,0.43-0.21,0.74-0.31   s0.61-0.14,0.93-0.14c0.82,0,1.5,0.25,2.02,0.74s0.78,1.11,0.78,1.86v4.07h-1.8V25.38z M110.85,24.32   c0.24-0.26,0.36-0.62,0.36-1.08v-0.2l-1.46,0.27c-0.49,0.08-0.74,0.32-0.74,0.74c0,0.44,0.29,0.66,0.87,0.66   C110.29,24.71,110.61,24.58,110.85,24.32z"/>
	<path d="M116.61,26.04h-1.8v-9.33h1.8V26.04z"/>
</g>
<g>
	<path d="M83.38,28.47c0.44,0.13,0.81,0.28,1.09,0.47c0.28,0.18,0.54,0.36,0.75,0.55c0.22,0.18,0.38,0.34,0.47,0.46l0.15,0.2   l-1.27,1.27c-0.03-0.03-0.06-0.08-0.11-0.15c-0.05-0.06-0.15-0.17-0.31-0.32c-0.16-0.15-0.33-0.29-0.52-0.4s-0.43-0.22-0.74-0.32   s-0.61-0.15-0.93-0.15c-0.87,0-1.6,0.29-2.19,0.88s-0.88,1.31-0.88,2.19c0,0.87,0.29,1.6,0.88,2.19c0.59,0.59,1.31,0.88,2.19,0.88   c0.34,0,0.66-0.05,0.97-0.14c0.31-0.09,0.57-0.2,0.77-0.33s0.38-0.26,0.54-0.39c0.16-0.13,0.27-0.24,0.34-0.34l0.1-0.14l1.2,1.27   c-0.03,0.05-0.09,0.12-0.16,0.21c-0.07,0.08-0.23,0.23-0.47,0.45c-0.25,0.21-0.51,0.4-0.79,0.57s-0.65,0.31-1.1,0.45   c-0.45,0.13-0.92,0.2-1.41,0.2c-1.42,0-2.62-0.48-3.6-1.43c-0.98-0.95-1.47-2.1-1.47-3.44c0-1.34,0.49-2.49,1.47-3.44   s2.18-1.43,3.6-1.43C82.47,28.28,82.94,28.35,83.38,28.47z"/>
	<path d="M90.7,37.15c-0.05,0.06-0.12,0.14-0.22,0.22c-0.09,0.09-0.3,0.21-0.61,0.35c-0.31,0.15-0.64,0.22-0.98,0.22   c-0.65,0-1.18-0.18-1.59-0.54c-0.41-0.36-0.61-0.8-0.61-1.32c0-0.53,0.17-0.98,0.51-1.33s0.82-0.59,1.42-0.7l2.07-0.37   c0-0.27-0.1-0.5-0.3-0.67c-0.2-0.17-0.48-0.26-0.83-0.26c-0.29,0-0.56,0.06-0.81,0.17s-0.41,0.22-0.51,0.34l-0.15,0.16l-1-1   c0.03-0.03,0.06-0.08,0.11-0.14c0.05-0.06,0.15-0.16,0.31-0.3c0.16-0.14,0.33-0.27,0.52-0.38c0.19-0.11,0.43-0.21,0.74-0.31   s0.61-0.14,0.93-0.14c0.82,0,1.5,0.25,2.02,0.74c0.52,0.49,0.78,1.11,0.78,1.86v4.07h-1.8V37.15z M90.34,36.09   c0.24-0.26,0.36-0.62,0.36-1.08v-0.2l-1.46,0.27c-0.49,0.08-0.74,0.32-0.74,0.74c0,0.44,0.29,0.66,0.87,0.66   C89.78,36.48,90.1,36.35,90.34,36.09z"/>
	<path d="M102.36,34.21c0-0.42-0.1-0.74-0.3-0.98c-0.2-0.24-0.46-0.35-0.77-0.35c-0.35,0-0.63,0.14-0.86,0.41   c-0.23,0.27-0.34,0.65-0.34,1.13v3.4h-1.8v-3.6c0-0.42-0.1-0.74-0.3-0.98c-0.2-0.24-0.46-0.35-0.76-0.35   c-0.35,0-0.63,0.14-0.86,0.41c-0.23,0.27-0.34,0.65-0.34,1.13v3.4h-1.8v-6.53h1.8v0.8c0.04-0.07,0.11-0.16,0.2-0.26   s0.29-0.24,0.58-0.41s0.61-0.26,0.95-0.26c0.26,0,0.5,0.04,0.72,0.12s0.41,0.17,0.54,0.28c0.13,0.11,0.25,0.21,0.35,0.33   c0.1,0.11,0.16,0.21,0.2,0.29l0.05,0.12c0.02-0.03,0.05-0.07,0.09-0.12c0.04-0.05,0.13-0.15,0.27-0.27   c0.14-0.13,0.28-0.24,0.44-0.34c0.16-0.1,0.36-0.19,0.61-0.27c0.25-0.08,0.52-0.12,0.79-0.12c0.72,0,1.29,0.24,1.71,0.73   c0.42,0.48,0.63,1.2,0.63,2.14v3.8h-1.8V34.21z"/>
	<path d="M108.57,37.71c-0.32-0.15-0.55-0.31-0.69-0.46l-0.2-0.24v3.6h-1.8v-9.33h1.8v0.8c0.02-0.03,0.04-0.06,0.08-0.1   c0.04-0.04,0.11-0.11,0.23-0.22c0.12-0.11,0.25-0.2,0.39-0.29c0.14-0.08,0.32-0.16,0.54-0.23c0.22-0.07,0.45-0.1,0.69-0.1   c0.85,0,1.58,0.33,2.2,0.99c0.62,0.66,0.93,1.46,0.93,2.41s-0.31,1.75-0.93,2.41s-1.36,0.99-2.2,0.99   C109.25,37.94,108.9,37.86,108.57,37.71z M108.15,33.25c-0.31,0.34-0.47,0.77-0.47,1.29c0,0.52,0.16,0.96,0.47,1.29   c0.31,0.34,0.69,0.51,1.14,0.51c0.44,0,0.82-0.17,1.13-0.51c0.31-0.34,0.47-0.77,0.47-1.29c0-0.53-0.16-0.96-0.47-1.29   c-0.31-0.34-0.69-0.5-1.13-0.5C108.85,32.75,108.47,32.92,108.15,33.25z"/>
	<path d="M118.48,37.15c-0.05,0.06-0.13,0.14-0.22,0.22s-0.3,0.21-0.63,0.35c-0.32,0.15-0.66,0.22-1.02,0.22   c-0.75,0-1.35-0.25-1.83-0.75s-0.71-1.17-0.71-2v-3.91h1.8v3.74c0,0.36,0.12,0.67,0.36,0.9c0.24,0.24,0.54,0.36,0.91,0.36   c0.41,0,0.73-0.13,0.97-0.4s0.36-0.64,0.36-1.13v-3.47h1.8v6.53h-1.8V37.15z"/>
	<path d="M125.67,33.21c-0.03-0.03-0.07-0.08-0.13-0.14c-0.06-0.06-0.18-0.14-0.37-0.24c-0.19-0.1-0.38-0.15-0.57-0.15   c-0.25,0-0.44,0.05-0.59,0.16s-0.21,0.23-0.21,0.37c0,0.17,0.1,0.31,0.31,0.42s0.45,0.21,0.75,0.3c0.29,0.09,0.59,0.2,0.89,0.32   c0.3,0.12,0.55,0.32,0.75,0.6c0.2,0.28,0.31,0.62,0.31,1.02c0,0.59-0.23,1.08-0.69,1.47c-0.46,0.4-1.1,0.59-1.9,0.59   c-0.35,0-0.68-0.04-0.99-0.12c-0.31-0.08-0.57-0.18-0.76-0.3c-0.2-0.12-0.37-0.23-0.51-0.35c-0.15-0.12-0.25-0.21-0.32-0.29   l-0.09-0.14l1-1c0.03,0.05,0.09,0.12,0.17,0.2c0.08,0.08,0.24,0.19,0.48,0.33s0.49,0.2,0.75,0.2c0.29,0,0.5-0.06,0.65-0.17   c0.15-0.11,0.22-0.25,0.22-0.43c0-0.18-0.1-0.33-0.31-0.45c-0.2-0.12-0.46-0.22-0.76-0.31c-0.3-0.09-0.6-0.2-0.89-0.32   c-0.29-0.13-0.54-0.32-0.75-0.59c-0.2-0.26-0.31-0.6-0.31-1c0-0.52,0.24-1,0.73-1.43c0.49-0.43,1.09-0.64,1.8-0.64   c0.45,0,0.87,0.08,1.25,0.25s0.64,0.33,0.79,0.49l0.23,0.25L125.67,33.21z"/>
</g>
<g>
	<path d="M76.51,40.24h2.13l2.4,6.93l2.4-6.93h2.13l-3.47,9.33h-2.13L76.51,40.24z"/>
</g>
<g>
	<path d="M90.94,48.69c-0.69,0.68-1.5,1.02-2.43,1.02s-1.74-0.34-2.43-1.02c-0.69-0.68-1.03-1.47-1.03-2.38   c0-0.91,0.34-1.7,1.03-2.38c0.69-0.68,1.5-1.02,2.43-1.02s1.74,0.34,2.43,1.02c0.69,0.68,1.03,1.47,1.03,2.38   C91.97,47.22,91.62,48.01,90.94,48.69z M87.38,47.54c0.32,0.33,0.69,0.5,1.13,0.5s0.81-0.17,1.13-0.5   c0.32-0.33,0.48-0.74,0.48-1.23c0-0.49-0.16-0.9-0.48-1.23c-0.32-0.33-0.69-0.5-1.13-0.5s-0.81,0.17-1.13,0.5   c-0.32,0.33-0.48,0.75-0.48,1.23C86.91,46.8,87.06,47.21,87.38,47.54z"/>
	<path d="M97.23,44.78c-0.13-0.04-0.33-0.07-0.6-0.07c-0.47,0-0.85,0.15-1.12,0.45c-0.28,0.3-0.41,0.73-0.41,1.29v3.13h-1.8v-6.53   h1.8v0.8c0.05-0.06,0.13-0.14,0.22-0.24s0.3-0.23,0.63-0.39c0.32-0.16,0.66-0.24,1.02-0.24h0.27V44.78z"/>
	<path d="M101.83,48.91c-0.05,0.06-0.12,0.14-0.22,0.22c-0.09,0.09-0.3,0.21-0.61,0.35c-0.31,0.15-0.64,0.22-0.98,0.22   c-0.65,0-1.18-0.18-1.59-0.54c-0.41-0.36-0.61-0.8-0.61-1.32c0-0.53,0.17-0.98,0.51-1.33c0.34-0.36,0.82-0.59,1.42-0.7l2.07-0.37   c0-0.27-0.1-0.5-0.3-0.67c-0.2-0.17-0.48-0.26-0.83-0.26c-0.29,0-0.56,0.06-0.81,0.17c-0.24,0.11-0.41,0.22-0.51,0.34l-0.15,0.16   l-1-1c0.03-0.03,0.06-0.08,0.11-0.14c0.05-0.06,0.15-0.16,0.31-0.3c0.16-0.14,0.33-0.27,0.52-0.38c0.19-0.11,0.43-0.21,0.74-0.31   s0.61-0.14,0.93-0.14c0.82,0,1.5,0.25,2.02,0.74c0.52,0.49,0.78,1.11,0.78,1.86v4.07h-1.8V48.91z M101.46,47.86   c0.24-0.26,0.36-0.62,0.36-1.08v-0.2l-1.46,0.27c-0.49,0.08-0.74,0.32-0.74,0.74c0,0.44,0.29,0.66,0.87,0.66   C100.9,48.24,101.22,48.11,101.46,47.86z"/>
	<path d="M109.28,44.78c-0.13-0.04-0.33-0.07-0.6-0.07c-0.47,0-0.85,0.15-1.12,0.45c-0.28,0.3-0.41,0.73-0.41,1.29v3.13h-1.8v-6.53   h1.8v0.8c0.05-0.06,0.13-0.14,0.22-0.24s0.3-0.23,0.63-0.39c0.32-0.16,0.66-0.24,1.02-0.24h0.27V44.78z"/>
	<path d="M112.14,49.58h-1.8v-9.33h1.8V49.58z"/>
	<path d="M119.94,43.9c0.62,0.66,0.93,1.46,0.93,2.41c0,0.95-0.31,1.75-0.93,2.41c-0.62,0.66-1.35,0.99-2.2,0.99   c-0.37,0-0.72-0.08-1.05-0.23c-0.33-0.15-0.56-0.31-0.69-0.46l-0.2-0.24v0.8H114v-9.33h1.8v3.6c0.02-0.03,0.04-0.06,0.08-0.1   s0.11-0.11,0.23-0.22c0.12-0.11,0.25-0.2,0.39-0.29c0.14-0.08,0.32-0.16,0.54-0.23s0.45-0.1,0.69-0.1   C118.59,42.91,119.32,43.24,119.94,43.9z M118.54,47.6c0.31-0.34,0.47-0.77,0.47-1.29c0-0.53-0.16-0.96-0.47-1.29   c-0.31-0.34-0.69-0.5-1.13-0.5c-0.44,0-0.82,0.17-1.13,0.5s-0.47,0.77-0.47,1.29c0,0.52,0.16,0.96,0.47,1.29s0.69,0.51,1.13,0.51   C117.85,48.11,118.23,47.94,118.54,47.6z"/>
	<path d="M123.66,46.91c0.07,0.36,0.26,0.66,0.57,0.9c0.31,0.25,0.7,0.37,1.17,0.37c0.34,0,0.65-0.07,0.94-0.2s0.49-0.27,0.61-0.4   l0.19-0.2l0.93,1.2l-0.12,0.12c-0.05,0.05-0.17,0.15-0.35,0.28c-0.18,0.13-0.37,0.25-0.57,0.35c-0.2,0.1-0.46,0.19-0.78,0.27   s-0.65,0.12-0.99,0.12c-0.96,0-1.78-0.33-2.45-1c-0.68-0.67-1.02-1.47-1.02-2.4c0-0.93,0.33-1.73,1-2.4s1.47-1,2.4-1   c0.93,0,1.71,0.31,2.33,0.93c0.62,0.62,0.93,1.4,0.93,2.33l-0.07,0.73H123.66z M124.22,44.78c-0.27,0.22-0.45,0.51-0.56,0.87h3   c-0.07-0.35-0.24-0.63-0.5-0.86s-0.58-0.34-0.97-0.34S124.49,44.56,124.22,44.78z"/>
	<path d="M133.72,44.78c-0.13-0.04-0.33-0.07-0.6-0.07c-0.47,0-0.85,0.15-1.12,0.45c-0.28,0.3-0.41,0.73-0.41,1.29v3.13h-1.8v-6.53   h1.8v0.8c0.05-0.06,0.13-0.14,0.22-0.24s0.3-0.23,0.63-0.39c0.32-0.16,0.66-0.24,1.02-0.24h0.27V44.78z"/>
	<path d="M139.18,48.51c-0.02,0.03-0.04,0.06-0.08,0.1s-0.11,0.12-0.23,0.22c-0.12,0.11-0.25,0.2-0.38,0.29   c-0.14,0.08-0.32,0.16-0.54,0.23s-0.45,0.1-0.69,0.1c-0.75,0-1.42-0.32-2.03-0.97c-0.61-0.65-0.91-1.41-0.91-2.29   s0.3-1.65,0.91-2.29c0.61-0.65,1.28-0.97,2.03-0.97c0.37,0,0.72,0.08,1.05,0.23c0.33,0.16,0.55,0.31,0.68,0.46l0.2,0.24v-0.8h1.8v6   c0,0.94-0.33,1.73-0.99,2.37c-0.66,0.64-1.48,0.96-2.48,0.96c-0.37,0-0.73-0.05-1.07-0.15c-0.34-0.1-0.63-0.21-0.85-0.34   s-0.42-0.27-0.59-0.41s-0.29-0.26-0.36-0.35l-0.12-0.15l1.13-1.07c0.04,0.06,0.11,0.14,0.2,0.24c0.09,0.1,0.29,0.23,0.6,0.39   c0.31,0.16,0.65,0.24,1,0.24c0.53,0,0.96-0.16,1.27-0.47c0.31-0.31,0.47-0.73,0.47-1.27V48.51z M136.61,47.33   c0.28,0.3,0.63,0.46,1.04,0.46c0.41,0,0.77-0.16,1.07-0.47s0.46-0.69,0.46-1.14c0-0.44-0.15-0.82-0.46-1.13   c-0.31-0.31-0.66-0.47-1.07-0.47c-0.41,0-0.76,0.15-1.04,0.45c-0.28,0.3-0.43,0.68-0.43,1.15   C136.18,46.64,136.32,47.02,136.61,47.33z"/>
</g>
</svg>